<svg width="26" height="27" viewBox="0 0 26 27" fill="none" xmlns="http://www.w3.org/2000/svg">
<path d="M13 0C9.55219 0 6.24558 1.42232 3.80761 3.95406C1.36964 6.4858 0 9.91958 0 13.5C0 17.0804 1.36964 20.5142 3.80761 23.0459C6.24558 25.5777 9.55219 27 13 27C15.6888 27 18.5125 26.1588 20.5537 24.7504C20.6632 24.6749 20.7572 24.5778 20.8304 24.4645C20.9037 24.3513 20.9547 24.2241 20.9807 24.0904C21.0066 23.9567 21.0069 23.8189 20.9816 23.6851C20.9563 23.5512 20.9058 23.4238 20.8331 23.3102C20.7604 23.1966 20.6668 23.099 20.5578 23.0229C20.4487 22.9468 20.3263 22.8938 20.1975 22.8669C20.0688 22.8399 19.9361 22.8396 19.8072 22.8659C19.6783 22.8922 19.5557 22.9446 19.4463 23.0201C17.75 24.1936 15.2762 24.9231 13 24.9231C10.8244 24.9231 8.69767 24.2531 6.88873 22.9979C5.07979 21.7428 3.66989 19.9587 2.83733 17.8714C2.00476 15.7841 1.78692 13.4873 2.21136 11.2715C2.6358 9.05561 3.68345 7.02021 5.22183 5.42267C6.7602 3.82512 8.72022 2.73718 10.854 2.29641C12.9878 1.85565 15.1995 2.08187 17.2095 2.94645C19.2195 3.81104 20.9375 5.27516 22.1462 7.15368C23.3549 9.03219 24 11.2407 24 13.5C24 16.9334 22.64 17.6538 21.5 17.6538C20.36 17.6538 19 16.9334 19 13.5V8.30769C19 8.03228 18.8946 7.76814 18.7071 7.57339C18.5196 7.37864 18.2652 7.26923 18 7.26923C17.7348 7.26923 17.4804 7.37864 17.2929 7.57339C17.1054 7.76814 17 8.03228 17 8.30769V8.86067C16.1026 8.02514 14.9837 7.48964 13.789 7.32393C12.5944 7.15823 11.3793 7.37 10.3022 7.93166C9.2251 8.49332 8.33585 9.37883 7.75031 10.4728C7.16476 11.5668 6.91007 12.8186 7.0194 14.0651C7.12874 15.3116 7.59704 16.4949 8.36329 17.4611C9.12955 18.4272 10.1582 19.1313 11.3153 19.4816C12.4724 19.8319 13.7043 19.8122 14.8505 19.4251C15.9967 19.0379 17.004 18.3013 17.7412 17.3112C18.4912 18.8688 19.785 19.7308 21.5 19.7308C24.3175 19.7308 26 17.402 26 13.5C25.9964 9.92074 24.6256 6.48916 22.1884 3.95823C19.7512 1.42731 16.4467 0.00377977 13 0ZM13 17.6538C12.2089 17.6538 11.4355 17.4102 10.7777 16.9538C10.1199 16.4974 9.60723 15.8486 9.30448 15.0896C9.00173 14.3306 8.92252 13.4954 9.07686 12.6896C9.2312 11.8839 9.61216 11.1437 10.1716 10.5628C10.731 9.98186 11.4437 9.58625 12.2196 9.42597C12.9956 9.26569 13.7998 9.34795 14.5307 9.66235C15.2616 9.97674 15.8864 10.5092 16.3259 11.1922C16.7654 11.8753 17 12.6784 17 13.5C17 14.6017 16.5786 15.6582 15.8284 16.4372C15.0783 17.2162 14.0609 17.6538 13 17.6538Z" fill="#4D4D4D"/>
</svg>
